<svg width="230" height="39" viewBox="0 0 230 39" fill="none" xmlns="http://www.w3.org/2000/svg">
<g clip-path="url(#clip0_2_3090)">
<path d="M16.852 26.1244L6.752 5.77441H0V32.8354H4.718V11.5354L15.361 32.8354H21.57V5.77441H16.852V26.1244Z" fill="#38102A"/>
<path d="M38.672 13.6633C37.2334 12.8537 35.6044 12.4436 33.954 12.4753C32.2294 12.4465 30.5285 12.8799 29.028 13.7304C27.566 14.583 26.3828 15.8416 25.622 17.3533C24.7634 19.0841 24.3392 20.9979 24.386 22.9294C24.3187 24.9354 24.733 26.9283 25.594 28.7413C26.3213 30.2211 27.4878 31.4403 28.934 32.2323C30.4781 33.0284 32.1972 33.4241 33.934 33.3833C35.4706 33.4157 36.9963 33.1166 38.407 32.5064C39.634 31.9664 40.6955 31.1102 41.4829 30.0253C42.268 28.9082 42.7551 27.6092 42.898 26.2513H38.086C37.9953 27.2363 37.5251 28.1473 36.7749 28.7919C36.0247 29.4364 35.0533 29.764 34.066 29.7054C33.1443 29.7285 32.2359 29.4825 31.452 28.9973C30.6855 28.4887 30.0955 27.755 29.7629 26.8973C29.4236 26.0299 29.2336 25.1112 29.201 24.1803H42.972C42.9846 23.753 42.991 23.231 42.991 22.6144C43.0422 20.7244 42.6536 18.8484 41.856 17.1343C41.1677 15.6835 40.0581 14.4739 38.672 13.6633ZM31.407 16.8053C32.1345 16.3266 32.9902 16.08 33.861 16.0983C34.6635 16.0743 35.4562 16.2808 36.145 16.6933C36.8028 17.1252 37.3056 17.7558 37.58 18.4934C37.8497 19.2004 38.0063 19.9455 38.044 20.7013H29.286C29.3671 20.0791 29.5295 19.4703 29.769 18.8904C30.094 18.0485 30.6625 17.3226 31.402 16.8053H31.407Z" fill="#38102A"/>
<path d="M72.6192 7.13379H68.7133L68.6192 9.07779C68.6051 9.8679 68.4419 10.6483 68.1382 11.3778C67.8973 11.9262 67.4691 12.3711 66.9302 12.6328C66.2786 12.914 65.5724 13.0463 64.8632 13.0198H64.4492V16.7198H67.8492V27.4578C67.7981 28.6103 68.052 29.7558 68.5852 30.7788C69.0554 31.6043 69.7853 32.2511 70.6613 32.6188C71.687 33.0268 72.7848 33.2224 73.8882 33.1938C74.3682 33.1954 74.8476 33.164 75.3232 33.0998C75.7567 33.0408 76.1857 32.9526 76.6072 32.8358V29.1558C76.1125 29.2727 75.6056 29.3298 75.0972 29.3258C74.4411 29.3687 73.7913 29.1746 73.2662 28.7788C73.0319 28.5391 72.8531 28.2508 72.7424 27.9345C72.6316 27.6181 72.5916 27.2813 72.6252 26.9478V16.7208H76.9472V13.0208H72.6252V7.13379H72.6192Z" fill="#38102A"/>
<path d="M137.199 22.6083C137.25 20.7209 136.862 18.8475 136.066 17.1353C135.376 15.684 134.265 14.4741 132.877 13.6633C131.438 12.8537 129.809 12.4436 128.159 12.4753C126.434 12.4466 124.734 12.88 123.233 13.7304C121.771 14.5831 120.588 15.8416 119.827 17.3533C118.968 19.0841 118.544 20.9979 118.591 22.9294C118.524 24.9353 118.938 26.9282 119.799 28.7413C120.526 30.2211 121.693 31.4403 123.139 32.2323C124.683 33.0284 126.402 33.4241 128.139 33.3833C129.675 33.4155 131.201 33.1164 132.611 32.5064C133.838 31.9664 134.899 31.1102 135.687 30.0253C136.472 28.9082 136.959 27.6092 137.102 26.2513H132.29C132.199 27.2363 131.729 28.1473 130.979 28.7919C130.229 29.4364 129.257 29.764 128.27 29.7054C127.348 29.7285 126.44 29.4825 125.656 28.9973C124.89 28.4887 124.3 27.755 123.967 26.8973C123.627 26.03 123.437 25.1113 123.405 24.1803H137.176C137.191 23.7497 137.199 23.2257 137.199 22.6083ZM125.612 16.8084C126.34 16.3296 127.195 16.0831 128.066 16.1014C128.869 16.0773 129.661 16.2838 130.35 16.6964C131.008 17.1281 131.511 17.7587 131.785 18.4963C132.055 19.2034 132.211 19.9485 132.249 20.7044H123.491C123.572 20.0822 123.735 19.4733 123.974 18.8933C124.3 18.0496 124.871 17.3225 125.613 16.8053L125.612 16.8084Z" fill="#38102A"/>
<path d="M60.3806 13.7348C59.13 12.8773 57.6414 12.435 56.1255 12.4708C55.1072 12.4574 54.0987 12.6702 53.1725 13.0938C52.2904 13.505 51.52 14.1223 50.9266 14.8938C50.6951 15.1988 50.49 15.523 50.3135 15.8628V13.0167H45.5195V38.7027H50.3126V29.7107L50.8826 30.7027C51.383 31.6075 52.1516 32.3349 53.0825 32.7847L53.1025 32.7938C54.0113 33.1953 54.9962 33.3952 55.9896 33.3798C57.5206 33.4141 59.024 32.969 60.2896 32.1067C61.5593 31.1942 62.536 29.9319 63.1005 28.4737C63.7905 26.7073 64.1242 24.8217 64.0825 22.9257C64.1242 21.0262 63.8007 19.1363 63.1295 17.3588C62.5876 15.9078 61.6318 14.6477 60.3806 13.7348ZM58.6345 26.4437C58.3718 27.343 57.8618 28.1503 57.1625 28.7738C56.4858 29.3359 55.627 29.6315 54.7476 29.6048C53.8688 29.6272 53.0114 29.3322 52.3325 28.7738C51.6214 28.1536 51.0986 27.3463 50.8235 26.4437C50.1436 24.1565 50.1436 21.721 50.8235 19.4338C51.1003 18.524 51.6224 17.7081 52.3325 17.0758C53.0067 16.5072 53.8659 16.2052 54.7476 16.2268C55.6299 16.2008 56.4905 16.5034 57.1625 17.0758C57.8594 17.7089 58.3686 18.5216 58.6345 19.4248C59.2882 21.7188 59.2882 24.1497 58.6345 26.4437Z" fill="#38102A"/>
<path d="M91.0942 24.4575C91.1208 25.4147 90.9439 26.3667 90.5752 27.2505C90.2758 27.9611 89.7779 28.5705 89.1412 29.0055C88.503 29.4147 87.757 29.6236 86.9992 29.6055C86.5486 29.636 86.0967 29.5701 85.6736 29.4124C85.2505 29.2546 84.8658 29.0085 84.5452 28.6905C83.9436 27.9792 83.6394 27.0633 83.6962 26.1335V13.0215H78.9032V26.7035C78.8704 27.9383 79.129 29.1634 79.6582 30.2795C80.1381 31.2538 80.9062 32.0568 81.8582 32.5795C82.8699 33.0783 83.9779 33.351 85.1056 33.3786C86.2332 33.4062 87.3533 33.1882 88.3882 32.7395L88.4122 32.7275C89.4571 32.2029 90.3194 31.3752 90.8862 30.3525L91.2462 29.7265V29.8785V32.8335H95.8732V13.0215H91.0982L91.0942 24.4575Z" fill="#38102A"/>
<path d="M113.43 13.3142C112.405 12.7316 111.239 12.441 110.061 12.4742C108.983 12.455 107.915 12.6706 106.929 13.1062L106.904 13.1183C105.841 13.6337 104.964 14.465 104.392 15.4983L104.023 16.1403V13.0222H99.3418V32.8343H104.135V21.5153C104.109 20.5337 104.286 19.5574 104.654 18.6472C104.951 17.9139 105.464 17.2885 106.126 16.8542C106.792 16.4443 107.562 16.2359 108.344 16.2542C108.779 16.2229 109.216 16.2859 109.625 16.4388C110.034 16.5917 110.405 16.831 110.713 17.1403C111.29 17.8591 111.575 18.7686 111.513 19.6882V32.8343H116.306V19.2682C116.335 18.0331 116.083 16.8075 115.571 15.6833C115.11 14.6972 114.364 13.872 113.43 13.3142Z" fill="#38102A"/>
<path d="M160.217 1.29725C157.212 2.483 154.559 4.41393 152.506 6.90826C149.634 10.3947 148.069 14.7749 148.082 19.2923C148.069 23.8096 149.634 28.1898 152.506 31.6762C154.467 34.0646 156.983 35.9373 159.833 37.1312C162.684 38.3252 165.783 38.8042 168.861 38.5266C171.938 38.249 174.902 37.2231 177.493 35.5383C180.083 33.8536 182.223 31.561 183.725 28.8603L189.249 19.2933L183.725 9.72625C181.461 5.74326 177.845 2.70312 173.533 1.15679C169.22 -0.389529 164.496 -0.339705 160.217 1.29725Z" fill="#FF9E33"/>
<path d="M219.813 1.64648H199.436L189.248 19.2915L199.436 36.9385L209.624 19.2915H229.998L219.813 1.64648Z" fill="#FF9E33"/>
</g>
<defs>
<clipPath id="clip0_2_3090">
<rect width="230" height="38.706" fill="white"/>
</clipPath>
</defs>
</svg>
